<svg xmlns="http://www.w3.org/2000/svg" viewBox="0 0 882.35 216.38"><defs><style>.cls-1{fill:#3c61ff;}</style></defs><g id="Layer_2" data-name="Layer 2"><g id="Layer_1-2" data-name="Layer 1"><path d="M392.27,72.85h16.34V183.67a22.22,22.22,0,0,1-1.74,8.72,21.5,21.5,0,0,1-4.87,7.17,23.3,23.3,0,0,1-7.25,4.77,22.22,22.22,0,0,1-8.72,1.74H367.11a22,22,0,0,1-8.81-1.74,23.49,23.49,0,0,1-7.16-4.77,21.35,21.35,0,0,1-4.87-7.17,22.05,22.05,0,0,1-1.75-8.72V133.9a22.12,22.12,0,0,1,1.75-8.72,21.41,21.41,0,0,1,4.87-7.16,25.13,25.13,0,0,1,7.16-4.87,21.09,21.09,0,0,1,8.81-1.83h25.16Zm-24.61,53a6.6,6.6,0,0,0-5,2.12,7.06,7.06,0,0,0-2,5.05v51.6a6.9,6.9,0,0,0,7,7h17.63a6.64,6.64,0,0,0,5-2,6.9,6.9,0,0,0,1.93-5V125.82Z"/><polygon points="452.18 111.31 452.18 206.07 436.02 206.07 436.02 125.83 424.95 111.31 452.18 111.31"/><rect x="436.02" y="72.85" width="16.16" height="22.49"/><path d="M578.06,191.57V72.85H561.9V192.67a12.88,12.88,0,0,0,4,9.45,13.11,13.11,0,0,0,9.64,3.95h13.64Z"/><path d="M618.33,184.59a6.93,6.93,0,0,0,2,4.77,6.44,6.44,0,0,0,4.95,2.21h18.18q4.59,0,5.7-3.68a26.76,26.76,0,0,0,1.1-7.71h15.24v4.59a21.15,21.15,0,0,1-2,8.27,24.39,24.39,0,0,1-4.77,6.79,21.22,21.22,0,0,1-6.89,4.59,21.46,21.46,0,0,1-8.36,1.65H624.75a21.57,21.57,0,0,1-8.63-1.74,22.5,22.5,0,0,1-7.07-4.77,22.8,22.8,0,0,1-4.77-7,20.78,20.78,0,0,1-1.75-8.54V136.11a30.26,30.26,0,0,1,1.47-9.46,22.75,22.75,0,0,1,4.41-7.9,22.39,22.39,0,0,1,7-5.41,20.61,20.61,0,0,1,9.36-2h18.73a20.83,20.83,0,0,1,9.28,2,21.77,21.77,0,0,1,7,5.32,22.86,22.86,0,0,1,4.31,7.72,29.32,29.32,0,0,1,1.47,9.36v33.61H618.33Zm31.4-29.38V132.8a6.42,6.42,0,0,0-2.11-4.77,6.83,6.83,0,0,0-4.87-2H625.3a6.8,6.8,0,0,0-4.86,2,6.39,6.39,0,0,0-2.11,4.77v22.41Z"/><path d="M736.27,72.85h16.34V183.67a22.22,22.22,0,0,1-1.74,8.72,21.65,21.65,0,0,1-4.87,7.17,23.3,23.3,0,0,1-7.25,4.77,22.3,22.3,0,0,1-8.73,1.74H711.11a22,22,0,0,1-8.82-1.74,23.61,23.61,0,0,1-7.16-4.77,21.65,21.65,0,0,1-4.87-7.17,22.22,22.22,0,0,1-1.74-8.72V133.9a22.29,22.29,0,0,1,1.74-8.72,21.71,21.71,0,0,1,4.87-7.16,25.27,25.27,0,0,1,7.16-4.87,21.1,21.1,0,0,1,8.82-1.83h25.16Zm-24.61,53a6.6,6.6,0,0,0-5,2.12,7,7,0,0,0-2,5.05v51.6a6.9,6.9,0,0,0,7,7h17.63a6.66,6.66,0,0,0,5.05-2,6.94,6.94,0,0,0,1.93-5V125.82Z"/><polygon class="cls-1" points="796.18 111.31 796.18 206.07 780.02 206.07 780.02 125.83 768.95 111.31 796.18 111.31"/><rect class="cls-1" x="780.02" y="72.85" width="16.16" height="22.49"/><path class="cls-1" d="M860.13,111.32a21.61,21.61,0,0,1,8.63,1.74,22.71,22.71,0,0,1,11.84,11.75,20.81,20.81,0,0,1,1.75,8.54v72.72h-15.8V132.8a6.9,6.9,0,0,0-7-7H835.15v80.25H819.36V111.32Z"/><path d="M536.42,124.91a22.27,22.27,0,0,0-11.84-11.84,21.49,21.49,0,0,0-8.63-1.76H499.79a21.22,21.22,0,0,0-9.1,1.94,21.76,21.76,0,0,0-7,5,23.63,23.63,0,0,0-4.49,7.35,24,24,0,0,0-1.66,8.81,11.39,11.39,0,0,0,.1,1.57,11.51,11.51,0,0,1,.09,1.56h14.51c0-1.35.06-2.72.18-4.14a13.15,13.15,0,0,1,.83-3.76,5.92,5.92,0,0,1,2-2.67,6.69,6.69,0,0,1,3.95-1H515.4a7.24,7.24,0,0,1,7,7v15.25h-25.2a22,22,0,0,0-22,22v13.84a22,22,0,0,0,22,22h41V133.53A21.57,21.57,0,0,0,536.42,124.91Zm-14,66.66h-25a6.38,6.38,0,0,1-6.38-6.38V168.56a6.38,6.38,0,0,1,6.38-6.37h25Z"/><path d="M11.26,69.47,0,96.67,58.84,121A81.3,81.3,0,0,1,70.1,93.85Z"/><path d="M24.33,127.19v21.26H57.78a79.65,79.65,0,0,1,0-21.26Z"/><path d="M74.28,59.26l-15,15L73.71,88.73a79.19,79.19,0,0,1,15-15Z"/><path d="M58.85,154.6,15.29,172.65l11.26,27.19,43.56-18A80.53,80.53,0,0,1,58.85,154.6Z"/><path d="M75.8,26.55l18,43.57A80.53,80.53,0,0,1,121,58.86L103,15.3Z"/><path d="M73.72,186.89,59.26,201.35l15,15,14.45-14.45A78.9,78.9,0,0,1,73.72,186.89Z"/><path d="M127.19,24.34V57.79a79.58,79.58,0,0,1,21.25,0V24.34Z"/><path d="M179,0,154.59,58.85a81.24,81.24,0,0,1,27.2,11.26l24.38-58.85Z"/><path d="M201.35,59.26,186.9,73.72a80.31,80.31,0,0,1,15,15l14.45-14.45Z"/><path d="M205.51,93.84A80.67,80.67,0,0,1,216.78,121l43.56-18L249.08,75.81C243.66,78.05,219.36,88.12,205.51,93.84Z"/><path d="M201.92,186.9a79.48,79.48,0,0,1-15,15l14.45,14.45,15-15Z"/><path d="M217.84,127.19a78.83,78.83,0,0,1,0,21.26h33.44V127.2Z"/><path d="M216.79,154.61a80.82,80.82,0,0,1-11.27,27.19l58.86,24.37L275.64,179Z"/><path d="M204.81,137.84a67.28,67.28,0,0,1-1.38,13.56,15.84,15.84,0,0,0-6.6-2.73,60,60,0,1,0-119-10.83,59.89,59.89,0,0,0,25.77,49.25l-5,5a67,67,0,1,1,106.26-54.27Z"/><circle cx="194.21" cy="164.37" r="7.02"/></g></g></svg>