<?xml version="1.0" standalone="no"?>
<!DOCTYPE svg PUBLIC "-//W3C//DTD SVG 20010904//EN"
 "http://www.w3.org/TR/2001/REC-SVG-20010904/DTD/svg10.dtd">
<svg version="1.0" xmlns="http://www.w3.org/2000/svg"
 width="300.000000pt" height="300.000000pt" viewBox="0 0 300.000000 300.000000"
 preserveAspectRatio="xMidYMid meet">

<g transform="translate(0.000000,300.000000) scale(0.100000,-0.100000)"
fill="#000000" stroke="none">
<path d="M856 2139 l-639 -640 69 -70 c37 -38 73 -69 79 -69 5 0 263 253 572
562 l563 563 563 -563 c309 -309 566 -562 570 -562 4 0 40 31 80 69 l72 70
-640 640 c-352 353 -642 641 -645 641 -3 -1 -293 -289 -644 -641z"/>
<path d="M1385 1869 c-299 -46 -537 -249 -637 -543 -30 -84 -32 -101 -32 -231
-1 -161 12 -223 73 -350 71 -150 195 -279 342 -355 42 -22 80 -40 83 -40 3 0
6 51 6 113 l0 112 -45 28 c-105 67 -207 212 -240 342 -19 73 -19 213 -1 280
42 158 142 290 280 370 39 22 154 65 176 65 7 0 10 -232 10 -720 l0 -720 100
0 100 0 0 720 c0 488 3 720 10 720 23 0 137 -43 177 -67 140 -81 237 -210 279
-368 18 -67 18 -207 -1 -280 -33 -130 -135 -275 -240 -342 l-45 -28 0 -112 c0
-62 2 -113 5 -113 3 0 36 15 74 34 189 96 336 272 402 486 20 63 23 97 24 215
0 119 -4 151 -23 215 -107 341 -381 557 -728 574 -49 3 -116 1 -149 -5z"/>
</g>
</svg>
